<svg width="397" height="122" viewBox="0 0 397 122" fill="none" xmlns="http://www.w3.org/2000/svg">
<path fill-rule="evenodd" clip-rule="evenodd" d="M16.6546 40.3028H23.1636C33.5346 40.3028 35.0495 31.9003 35.0495 26.8279C35.0495 23.4182 33.9883 13.9572 21.9525 13.9572H16.6546V40.3028ZM0 0.102905H27.3288C45.345 0.102905 51.7068 13.4259 51.7068 27.0561C51.7068 43.6329 42.9228 54.1564 24.0709 54.1564H0V0.102905ZM55.9435 54.1564H70.9334V14.8672H55.9435V54.1564ZM55.9435 10.6285H70.9334V0.102905H55.9435V10.6285ZM101.516 36.5171C99.6973 37.4243 97.6566 37.9536 95.6091 38.4079C92.2804 39.1681 90.538 39.999 90.538 42.6446C90.538 44.468 92.5058 46.2825 95.2324 46.2825C98.6395 46.2825 101.291 44.2398 101.516 40.1503V36.5171ZM115.898 45.3752C115.898 48.3259 116.051 51.6587 117.717 54.1564H102.423C102.047 53.0939 101.819 51.5068 101.893 50.4442H101.744C98.5646 54.0815 93.9451 55.1407 89.1008 55.1407C81.5306 55.1407 75.2477 51.5068 75.2477 43.2535C75.2477 30.8378 89.7799 31.2928 97.4284 29.8576C99.4719 29.4775 101.516 28.8707 101.516 26.3729C101.516 23.7226 99.0175 22.7391 96.5947 22.7391C91.9773 22.7391 91.07 25.0856 90.9917 26.7523H77.063C77.516 15.6955 87.9647 13.8809 97.2759 13.8809C116.051 13.8809 115.898 21.6799 115.898 29.2507V45.3752Z" fill="#00A3DA"/>
<path fill-rule="evenodd" clip-rule="evenodd" d="M121.878 0.102173H136.867V26.2203L146.404 14.8665H163.362L149.359 29.705L165.56 54.1557H147.54L139.518 39.922L136.867 42.7971V54.1557H121.878V0.102173Z" fill="#00A3DA"/>
<path fill-rule="evenodd" clip-rule="evenodd" d="M184.939 24.7858C179.261 24.7858 178.505 30.3092 178.505 34.4743C178.505 38.636 179.261 44.2391 184.939 44.2391C190.617 44.2391 191.372 38.636 191.372 34.4743C191.372 30.3092 190.617 24.7858 184.939 24.7858ZM184.939 55.1399C170.175 55.1399 163.513 45.3745 163.513 34.4743C163.513 23.5693 170.175 13.8802 184.939 13.8802C199.7 13.8802 206.361 23.5693 206.361 34.4743C206.361 45.3745 199.7 55.1399 184.939 55.1399ZM210.978 14.8665H225.436V19.8605H225.587C228.391 15.9229 232.403 13.8802 238.384 13.8802C245.423 13.8802 251.862 18.1931 251.862 27.2066V54.1557H236.872V33.5629C236.872 29.0218 236.342 25.8402 231.947 25.8402C229.377 25.8402 225.968 27.131 225.968 33.4117V54.1557H210.978V14.8665ZM257.837 54.1557H272.831V14.8665H257.837V54.1557ZM257.837 10.6278H272.831V0.102173H257.837V10.6278ZM305.381 30.081C305.381 26.4471 302.656 23.4944 298.79 23.4944C294.324 23.4944 291.753 25.8402 291.071 30.081H305.381ZM290.998 37.88C291.373 42.3448 293.945 45.5264 298.638 45.5264C301.06 45.5264 303.719 44.6184 304.933 42.7242H318.929C315.898 51.2023 307.652 55.1399 298.715 55.1399C286.15 55.1399 276.69 47.7163 276.69 34.6255C276.69 23.1906 285.012 13.8802 297.431 13.8802C313.028 13.8802 319.765 22.5864 319.765 37.88H290.998ZM360.017 24.7858C355.939 24.7858 352.574 21.6022 352.574 17.7913C352.574 13.8161 355.939 10.6604 360.017 10.6604C364.116 10.6604 367.419 13.8161 367.419 17.7913V24.7858H360.017Z" fill="#00A3DA"/>
<path fill-rule="evenodd" clip-rule="evenodd" d="M367.419 0H342.628V24.796H350.964C349.287 22.9025 348.292 20.3959 348.292 17.8022C348.292 11.5269 353.549 6.50757 360.017 6.50757C362.812 6.50757 365.364 7.42982 367.419 8.9903V0ZM379.303 24.7858C383.45 24.7858 386.723 21.6022 386.723 17.7913C386.723 13.8161 383.45 10.6604 379.303 10.6604C375.242 10.6604 371.922 13.8161 371.922 17.7913V24.7858H379.303Z" fill="#00A3DA"/>
<path fill-rule="evenodd" clip-rule="evenodd" d="M371.885 0H396.678V24.796H388.386C390.02 22.9025 390.983 20.3959 390.983 17.8022C390.983 11.5269 385.758 6.50757 379.289 6.50757C376.51 6.50757 373.935 7.42982 371.885 8.9903V0Z" fill="#00A3DA"/>
<path fill-rule="evenodd" clip-rule="evenodd" d="M342.628 54.0957H367.419V29.2949H342.628V54.0957Z" fill="#00A3DA"/>
<path fill-rule="evenodd" clip-rule="evenodd" d="M371.885 54.0957H396.678V29.2949H371.885V54.0957Z" fill="#00A3DA"/>
<path fill-rule="evenodd" clip-rule="evenodd" d="M8.39848 69.4125V86.0921H8.51495L19.1285 69.4125H28.2265L16.9127 87.2575L29.5098 111.052H20.0623L11.4895 93.9654L8.39848 98.6877V111.052H0V69.4125H8.39848Z" fill="#1A1919"/>
<path fill-rule="evenodd" clip-rule="evenodd" d="M44.9656 95.3644C43.8574 96.1804 42.5156 96.7062 41.5245 96.9392C38.2584 97.6387 36.9758 99.2135 36.9758 102.012C36.9758 104.404 37.8504 106.387 40.0076 106.387C42.1661 106.387 44.9656 104.987 44.9656 101.546V95.3644ZM30.2693 89.2989V88.5415C30.2693 81.3099 35.226 78.8612 41.2916 78.8612C50.8555 78.8612 52.6632 82.8261 52.6632 88.4836V104.987C52.6632 107.903 52.8383 109.244 53.6543 111.052H45.9567C45.4315 110.06 45.1986 108.837 44.9656 107.786H44.8485C42.9822 111.052 40.7078 111.869 36.8587 111.869C31.2604 111.869 29.2776 107.086 29.2776 102.888C29.2776 96.9971 31.6691 94.6056 37.2088 93.0894L41.7575 91.8661C44.1483 91.2238 44.9656 90.2906 44.9656 88.1914C44.9656 85.7999 43.9153 84.3423 41.233 84.3423C38.7836 84.3423 37.501 85.975 37.501 88.425V89.2989H30.2693ZM59.021 70.6964H67.0687V79.6765H71.7345V85.159H67.0687V102.129C67.0687 104.578 67.5938 105.57 69.9268 105.57C70.5684 105.57 71.2093 105.512 71.7345 105.454V111.052C69.9853 111.227 68.3526 111.402 66.4856 111.402C60.1871 111.402 59.021 109.478 59.021 103.12V85.159H54.9389V79.6765H59.021V70.6964ZM89.5225 95.3644C88.4136 96.1804 87.0724 96.7062 86.0814 96.9392C82.8153 97.6387 81.5327 99.2135 81.5327 102.012C81.5327 104.404 82.4073 106.387 84.5652 106.387C86.7223 106.387 89.5225 104.987 89.5225 101.546V95.3644ZM74.8262 89.2989V88.5415C74.8262 81.3099 79.7829 78.8612 85.8484 78.8612C95.4123 78.8612 97.2201 82.8261 97.2201 88.4836V104.987C97.2201 107.903 97.3951 109.244 98.2118 111.052H90.5136C89.9884 110.06 89.7555 108.837 89.5225 107.786H89.4054C87.5397 111.052 85.2647 111.869 81.4156 111.869C75.8173 111.869 73.8338 107.086 73.8338 102.888C73.8338 96.9971 76.2253 94.6056 81.7657 93.0894L86.3143 91.8661C88.7058 91.2238 89.5225 90.2906 89.5225 88.1914C89.5225 85.7999 88.4722 84.3423 85.7899 84.3423C83.3405 84.3423 82.0572 85.975 82.0572 88.425V89.2989H74.8262ZM107.893 100.788V101.837C107.893 104.578 109.351 106.387 112.091 106.387C114.542 106.387 116.174 105.162 116.174 102.654C116.174 100.613 114.833 99.6801 113.258 99.097L107.602 97.0563C103.169 95.4809 100.895 92.74 100.895 88.3078C100.895 83.1176 104.161 78.8612 112.442 78.8612C119.732 78.8612 123.173 82.1265 123.173 87.7834V89.0653H115.941C115.941 85.9164 115.008 84.3423 112.384 84.3423C110.342 84.3423 108.593 85.5091 108.593 87.7248C108.593 89.241 109.41 90.5243 112.091 91.3988L116.933 93.0315C122.006 94.7228 123.872 97.2886 123.872 102.012C123.872 108.603 118.973 111.869 112.209 111.869C103.169 111.869 100.662 107.903 100.662 101.896V100.788H107.893ZM129.471 70.6964H137.52V79.6765H142.185V85.159H137.52V102.129C137.52 104.578 138.044 105.57 140.377 105.57C141.018 105.57 141.66 105.512 142.185 105.454V111.052C140.436 111.227 138.802 111.402 136.937 111.402C130.638 111.402 129.471 109.478 129.471 103.12V85.159H125.389V79.6765H129.471V70.6964ZM145.86 79.6765H153.557V83.875H153.674C155.307 80.8433 157.581 78.8612 160.905 78.8612C161.372 78.8612 161.898 78.9191 162.364 78.9777V86.6752C161.547 86.6166 160.673 86.5587 159.856 86.5587C157.057 86.5587 153.907 88.0163 153.907 92.2155V111.052H145.86V79.6765Z" fill="#1A1919"/>
<mask id="mask0" mask-type="alpha" maskUnits="userSpaceOnUse" x="163" y="78" width="54" height="44">
<path d="M163.415 78.8571H216.322V121.275H163.415V78.8571Z" fill="white"/>
</mask>
<g mask="url(#mask0)">
<path fill-rule="evenodd" clip-rule="evenodd" d="M175.777 106.387C179.043 106.387 180.093 103.179 180.093 95.3645C180.093 87.5498 179.043 84.3423 175.777 84.3423C171.812 84.3423 171.462 88.9488 171.462 95.3645C171.462 101.779 171.812 106.387 175.777 106.387ZM175.777 78.8612C185.458 78.6848 188.141 84.4588 188.141 95.3645C188.141 106.095 184.992 111.869 175.777 111.869C166.097 112.043 163.415 106.269 163.415 95.3645C163.415 84.6338 166.563 78.8612 175.777 78.8612ZM204.075 105.687C207.574 105.687 208.273 102.187 208.273 95.3645C208.273 88.5415 207.574 85.0425 204.075 85.0425C200.518 85.0425 199.817 88.5415 199.817 95.3645C199.817 102.187 200.518 105.687 204.075 105.687ZM191.77 79.6765H199.468V83.0012H199.585C201.334 80.0852 203.551 78.8612 206.7 78.8612C213.29 78.8612 216.322 83.7007 216.322 95.3645C216.322 107.028 213.29 111.869 206.7 111.869C203.667 111.869 201.626 110.644 199.934 108.136H199.817V121.316H191.77V79.6765Z" fill="#1A1919"/>
</g>
<path fill-rule="evenodd" clip-rule="evenodd" d="M220.114 69.4124H228.163V82.8839H228.279C229.795 80.2023 232.536 78.8611 235.919 78.8611C240.934 78.8611 243.909 81.6007 243.909 87.7833V111.052H235.86V89.4153C235.86 86.2664 234.81 85.0425 232.419 85.0425C229.678 85.0425 228.163 86.733 228.163 90.232V111.052H220.114V69.4124ZM263.838 91.8068C263.663 87.0239 263.079 84.3422 259.756 84.3422C256.549 84.3422 255.615 87.6669 255.615 90.5828V91.8068H263.838ZM255.615 96.5891V99.097C255.615 102.77 256.607 106.387 259.581 106.387C262.263 106.387 263.372 104.345 263.838 100.496H271.07C270.778 107.786 267.278 111.869 259.698 111.869C248.034 111.869 247.568 102.888 247.568 95.0728C247.568 86.6751 249.2 78.8611 260.048 78.8611C269.436 78.8611 271.536 85.1589 271.536 94.7813V96.5891H255.615ZM275.328 79.6765H283.027V83.3512H283.142C284.834 80.2602 287.75 78.8611 291.133 78.8611C296.147 78.8611 299.122 81.6007 299.122 87.7833V111.052H291.074V89.4153C291.074 86.2664 290.025 85.0425 287.633 85.0425C284.893 85.0425 283.376 86.733 283.376 90.232V111.052H275.328V79.6765ZM303.614 69.4124H311.662V82.8839H311.778C313.295 80.2023 316.035 78.8611 319.419 78.8611C324.434 78.8611 327.408 81.6007 327.408 87.7833V111.052H319.36V89.4153C319.36 86.2664 318.31 85.0425 315.92 85.0425C313.179 85.0425 311.662 86.733 311.662 90.232V111.052H303.614V69.4124ZM331.9 111.052H339.948V79.6765H331.9V111.052ZM331.9 75.8274H339.948V68.9459H331.9V75.8274Z" fill="#1A1919"/>
<path fill-rule="evenodd" clip-rule="evenodd" d="M344.673 111.052H352.72V69.4125H344.673V111.052Z" fill="#1A1919"/>
<path fill-rule="evenodd" clip-rule="evenodd" d="M359.078 85.1589H354.995V79.6765H359.078V76.1196C359.078 70.4628 362.285 68.5958 367.475 68.5958C368.934 68.5958 370.333 68.6543 371.791 68.7715V74.4862C371.266 74.4283 370.742 74.4283 370.215 74.4283C367.942 74.4283 367.125 75.1279 367.125 76.9363V79.6765H371.791V85.1589H367.125V111.052H359.078V85.1589ZM388.996 91.8068C388.82 87.0239 388.236 84.3423 384.913 84.3423C381.705 84.3423 380.772 87.6669 380.772 90.5828V91.8068H388.996ZM380.772 96.5891V99.097C380.772 102.77 381.764 106.387 384.737 106.387C387.42 106.387 388.529 104.345 388.996 100.496H396.227C395.935 107.786 392.436 111.869 384.855 111.869C373.191 111.869 372.724 102.888 372.724 95.0729C372.724 86.6751 374.358 78.8612 385.205 78.8612C394.594 78.8612 396.694 85.1589 396.694 94.7813V96.5891H380.772Z" fill="#1A1919"/>
</svg>
