<svg xmlns="http://www.w3.org/2000/svg" width="217.311" height="46.22" viewBox="0 0 217.311 46.22">
  <g id="Group_1639" data-name="Group 1639" transform="translate(-13683.3 -1756.54)">
    <path id="Path_229" data-name="Path 229" d="M528,292.65h1.61V279.58H528Zm-16.32-1.55c-1.36-.01-2.14-1.05-2.14-2.59.01-1.76.78-2.74,2.24-2.74,1.29.01,2.02.86,2.04,2.56-.02,1.89-.71,2.76-2.14,2.77m12.19-2.66a4.021,4.021,0,0,1-.31,1.88,1.717,1.717,0,0,1-1.7.8h-.42v-.01h-2.36c.03-.42.06-.83.06-1.27a8.647,8.647,0,0,0-1.49-5.09,8.52,8.52,0,0,0-4.87-3.24l-.09-.02v1.58l.06.02a6.642,6.642,0,0,1,4.82,6.48,7.149,7.149,0,0,1-.17,1.55h-2.83a4.076,4.076,0,0,0,.89-2.69,3.636,3.636,0,0,0-3.75-3.95,3.76,3.76,0,0,0-3.85,3.97,4.155,4.155,0,0,0,.85,2.68h-2.75v-.02h-3.55a4.744,4.744,0,0,0,.39-2.05v-9.48h-1.63v8.86c-.02,2.15-.51,2.67-2,2.68h-.54l-2.64-10h-1.72l2.68,10h-3.36v1.53h28.75c2.08-.01,3.13-1.24,3.13-3.59v-9.48h-1.6v8.86Zm-33.93.3a7.315,7.315,0,0,1-.97,3.88,3.65,3.65,0,0,1-3.36,1.84,3.713,3.713,0,0,1-3.36-1.84,7.2,7.2,0,0,1-.99-3.88v-1.71h-1.61v1.99a7.355,7.355,0,0,0,1.7,5,5.469,5.469,0,0,0,4.26,1.94h.01a5.328,5.328,0,0,0,4.18-1.92,7.357,7.357,0,0,0,1.75-5.02v-9.44h-1.61v9.16Zm-16.66,3.91h1.61V279.58h-1.61Zm-4.13-4.21c-.02,2.17-.56,2.67-2,2.68h-.56l-2.62-10h-1.73l2.68,10h-3.36v1.53h6.08c2.08-.01,3.12-1.24,3.13-3.59v-9.48h-1.6v8.86Zm-4.25-9.58h-2.26a1.094,1.094,0,0,1-.17-.64c.01-.7.26-1,.77-1,.4.01.61.19.69.64l.02.07,1.01-.09-.03-.08a1.553,1.553,0,0,0-1.7-1.34,1.667,1.667,0,0,0-1.78,1.83,1.884,1.884,0,0,0,.11.62h-.8v.95h4.13v-.96Zm-25.96,14.12a2.307,2.307,0,0,1-2-.95,3.6,3.6,0,0,1-.57-2.15,3.908,3.908,0,0,1,.57-2.28,2.373,2.373,0,0,1,2.08-1.02,2.139,2.139,0,0,1,1.91.94,3.623,3.623,0,0,1,.55,2.12c-.02,2.26-.85,3.33-2.54,3.34m13.63-9.29a6.416,6.416,0,0,0-5.22,2.15l-.04.05.05.05c.64.62,1.05,1.02,1.26,1.24l.08.07.05-.08a4.213,4.213,0,0,1,3.85-1.94c3.22,0,5.02,1.89,5.03,5.24,0,.19-.02.41-.04.65H443.18a5.19,5.19,0,0,0,.16-1.32,4.788,4.788,0,0,0-1.12-3.27,4.162,4.162,0,0,0-3.25-1.33,4.228,4.228,0,0,0-3.28,1.31,4.782,4.782,0,0,0-1.18,3.3,5.963,5.963,0,0,0,.15,1.31h-5.22v-7.67h-1.6v7.71c-.01,2.34-.94,3.29-2.83,3.3h-.08v1.49h.08c2.41-.14,3.87-1.22,4.28-3.27h6.04a4.084,4.084,0,0,0,3.62,1.74h.01a4.052,4.052,0,0,0,3.53-1.74h17.02v-2.09c-.02-4.22-2.77-6.89-6.94-6.9m-34.02,8.96h1.61V279.58h-1.61Zm-13.88-2.87a4.777,4.777,0,0,1-2.14-1.62,3.373,3.373,0,0,1-.7-2.06,2.594,2.594,0,0,1,2.81-2.64,2.788,2.788,0,0,1,2.11.8,2.532,2.532,0,0,1,.73,1.87,3.444,3.444,0,0,1-.71,2.05,4.836,4.836,0,0,1-2.1,1.6m-10.79,1.34H383.77c1-3.29,4.07-6.29,6.63-6.28,2.22,0,3.53,2.02,3.54,5.1-.01.37-.03.77-.06,1.18m20.54-2.68a4.021,4.021,0,0,1-.31,1.88,1.691,1.691,0,0,1-1.69.8h-.75v-.02H408.3a4.774,4.774,0,0,1-1.94-.4,4.942,4.942,0,0,0,2.09-1.82,4.629,4.629,0,0,0,.77-2.56,4.11,4.11,0,0,0-1.15-2.93,5.122,5.122,0,0,0-6.82,0,3.973,3.973,0,0,0-1.17,2.93,4.725,4.725,0,0,0,.76,2.56,4.969,4.969,0,0,0,2.1,1.82,4.694,4.694,0,0,1-1.95.4h-5.43c.02-.3.02-.57.02-.85-.01-4.5-1.7-6.83-5.09-6.84-2.58,0-5.3,2.02-6.76,5.15l.33-8.97h-1.7v11.52h-2.54v-.02h-3.43v-7.67h-1.61v7.71c-.01,2.34-.94,3.29-2.83,3.3h-.08v1.49h.09c2.4-.14,3.86-1.22,4.27-3.27h23.54a16.106,16.106,0,0,0,2.43-.12,8.248,8.248,0,0,0,2.47-.95,8.477,8.477,0,0,0,2.46.95,15.812,15.812,0,0,0,2.4.12h3.36c2.07-.01,3.13-1.24,3.14-3.59v-9.48h-1.61Zm-7.52-9.72h-1.62v1.85h1.62Zm-2.72,0h-1.63v1.85h1.63ZM364.23,299.1h1.63v-1.85h-1.63Zm-2.73,0h1.64v-1.85H361.5Zm9.05-11.98h-5.06a3.989,3.989,0,0,1,4.2-3.28h.06v-1.36h-.06c-3.72-.01-5.93,2.04-6.19,6.14v.08h5.46c-.03,3.54-2.05,5.76-5.27,5.76-3.02,0-4.97-1.92-5.23-5.16-.02-.19-.02-.91-.02-2.15v-.08h-1.62v1.99a6.757,6.757,0,0,0,6.81,6.9h.12a6.78,6.78,0,0,0,6.83-6.82v-.08h0Z" transform="translate(13371 1482)"/>
    <path id="Path_230" data-name="Path 230" d="M323.54,297.64c0-10.5,8.82-19.03,19.7-19.03a20.079,20.079,0,0,1,9.56,2.4,24.253,24.253,0,0,0-16.59-6.47c-13.2,0-23.91,10.35-23.91,23.11s10.71,23.11,23.91,23.11a24.216,24.216,0,0,0,16.59-6.47,20.136,20.136,0,0,1-9.56,2.4c-10.88-.02-19.7-8.54-19.7-19.05" transform="translate(13371 1482)" fill="#ee3525"/>
    <path id="Path_231" data-name="Path 231" d="M366.96,312.75a4.94,4.94,0,0,0,1.24-1.96,7.264,7.264,0,0,0,.39-2.42,7.83,7.83,0,0,0-.27-2.04,5.37,5.37,0,0,0-.89-1.81,4.406,4.406,0,0,0-1.53-1.3,5.342,5.342,0,0,0-4.47,0,4.441,4.441,0,0,0-1.54,1.3,5.519,5.519,0,0,0-.87,1.81,7.572,7.572,0,0,0,0,4.08,5.624,5.624,0,0,0,.87,1.81,4.311,4.311,0,0,0,1.54,1.29,4.692,4.692,0,0,0,2.24.49,5.152,5.152,0,0,0,1.96-.39l-1.58-1.21,1-1.11Zm.12,1.96a6.838,6.838,0,0,1-3.4.8,7.043,7.043,0,0,1-2.98-.58,6.317,6.317,0,0,1-2.14-1.58,6.606,6.606,0,0,1-1.28-2.29,8.656,8.656,0,0,1-.43-2.69,8.373,8.373,0,0,1,.43-2.69,6.772,6.772,0,0,1,1.28-2.29,6.374,6.374,0,0,1,2.14-1.59,7.651,7.651,0,0,1,5.94,0,6.334,6.334,0,0,1,2.13,1.59,6.794,6.794,0,0,1,1.29,2.29,8.758,8.758,0,0,1-.11,5.68,6.564,6.564,0,0,1-1.62,2.45l1.88,1.42-.96,1.15Z" transform="translate(13371 1482)"/>
    <path id="Path_232" data-name="Path 232" d="M377.9,310.43c-.35.07-.7.13-1.09.17s-.76.1-1.14.15a4.055,4.055,0,0,0-1.03.28,1.752,1.752,0,0,0-.75.54,1.515,1.515,0,0,0-.29.97,1.25,1.25,0,0,0,.17.68,1.453,1.453,0,0,0,.44.45,1.9,1.9,0,0,0,.64.25,3.646,3.646,0,0,0,.74.08,4.36,4.36,0,0,0,1.44-.22,3.086,3.086,0,0,0,.97-.55,2.342,2.342,0,0,0,.56-.73,1.781,1.781,0,0,0,.18-.74v-1.67a2.336,2.336,0,0,1-.84.34m2.38,4.99a1.307,1.307,0,0,1-1.44-1.51,3.988,3.988,0,0,1-1.62,1.16,5.735,5.735,0,0,1-2.01.35,6.116,6.116,0,0,1-1.31-.14,3.124,3.124,0,0,1-1.08-.48,2.283,2.283,0,0,1-.74-.86,2.948,2.948,0,0,1-.27-1.28,2.824,2.824,0,0,1,.29-1.38,2.454,2.454,0,0,1,.79-.87,3.894,3.894,0,0,1,1.11-.51c.42-.12.85-.21,1.29-.29.46-.09.91-.16,1.33-.2a7.489,7.489,0,0,0,1.11-.19,1.746,1.746,0,0,0,.76-.37.874.874,0,0,0,.28-.7,1.564,1.564,0,0,0-.21-.86,1.71,1.71,0,0,0-.54-.5,2.21,2.21,0,0,0-.74-.23,5.486,5.486,0,0,0-.8-.06,3.719,3.719,0,0,0-1.8.39,1.653,1.653,0,0,0-.78,1.49h-1.7a3.44,3.44,0,0,1,.4-1.55,2.906,2.906,0,0,1,.95-1.02,4.27,4.27,0,0,1,1.38-.57,7.21,7.21,0,0,1,1.63-.17,10.423,10.423,0,0,1,1.38.1,3.727,3.727,0,0,1,1.25.39,2.474,2.474,0,0,1,.9.83,2.638,2.638,0,0,1,.33,1.4v5.1a3.364,3.364,0,0,0,.08.84c.04.18.2.27.46.27a1.53,1.53,0,0,0,.52-.1v1.27a2.493,2.493,0,0,1-1.2.25" transform="translate(13371 1482)"/>
    <path id="Path_233" data-name="Path 233" d="M387.31,305.3v1.44h-2.05v6.15a1.834,1.834,0,0,0,.05.46.45.45,0,0,0,.19.27.817.817,0,0,0,.39.12,5.672,5.672,0,0,0,.65.03h.78v1.44h-1.29a6,6,0,0,1-1.13-.09,1.558,1.558,0,0,1-.75-.32,1.253,1.253,0,0,1-.42-.65,3.408,3.408,0,0,1-.14-1.11v-6.3h-1.76V305.3h1.76v-2.97h1.69v2.97Z" transform="translate(13371 1482)"/>
    <path id="Path_234" data-name="Path 234" d="M394.57,310.43c-.36.07-.71.13-1.09.17s-.76.1-1.15.15a4.571,4.571,0,0,0-1.03.28,1.719,1.719,0,0,0-.74.54,1.461,1.461,0,0,0-.3.97,1.25,1.25,0,0,0,.17.68,1.35,1.35,0,0,0,.44.45,1.771,1.771,0,0,0,.63.25,3.745,3.745,0,0,0,.75.08,4.34,4.34,0,0,0,1.43-.22,3.086,3.086,0,0,0,.97-.55,2.342,2.342,0,0,0,.56-.73,1.926,1.926,0,0,0,.17-.74v-1.67a2.1,2.1,0,0,1-.81.34m2.36,4.99a1.5,1.5,0,0,1-1.04-.35,1.481,1.481,0,0,1-.39-1.16,4.086,4.086,0,0,1-1.63,1.16,5.7,5.7,0,0,1-2.01.35,6.257,6.257,0,0,1-1.31-.14,3.124,3.124,0,0,1-1.08-.48,2.2,2.2,0,0,1-.74-.86,3.248,3.248,0,0,1,.03-2.66,2.454,2.454,0,0,1,.79-.87,3.717,3.717,0,0,1,1.12-.51,12.593,12.593,0,0,1,1.28-.29c.46-.09.9-.16,1.32-.2a7.489,7.489,0,0,0,1.11-.19,1.652,1.652,0,0,0,.75-.37.849.849,0,0,0,.29-.7,1.655,1.655,0,0,0-.21-.86,1.522,1.522,0,0,0-.54-.5,2.284,2.284,0,0,0-.74-.23,5.728,5.728,0,0,0-.81-.06,3.746,3.746,0,0,0-1.8.39,1.653,1.653,0,0,0-.78,1.49h-1.69a3.44,3.44,0,0,1,.4-1.55,2.934,2.934,0,0,1,.96-1.02,4.179,4.179,0,0,1,1.38-.57,7.15,7.15,0,0,1,1.63-.17,10.675,10.675,0,0,1,1.38.1,3.657,3.657,0,0,1,1.25.39,2.369,2.369,0,0,1,.89.83,2.546,2.546,0,0,1,.35,1.4v5.1a3.469,3.469,0,0,0,.07.84c.04.18.2.27.46.27a1.575,1.575,0,0,0,.52-.1v1.27a2.481,2.481,0,0,1-1.21.25" transform="translate(13371 1482)"/>
    <path id="Path_235" data-name="Path 235" d="M401.1,305.3v2.09h.04a4.354,4.354,0,0,1,1.51-1.78,3.986,3.986,0,0,1,2.27-.54v1.73a4.95,4.95,0,0,0-1.73.27,2.663,2.663,0,0,0-1.15.79,3.29,3.29,0,0,0-.64,1.25,6.691,6.691,0,0,0-.19,1.7v4.4h-1.7V305.3Z" transform="translate(13371 1482)"/>
    <path id="Path_236" data-name="Path 236" d="M418.8,307.74a2.732,2.732,0,0,0,1.04-.37,2.155,2.155,0,0,0,.72-.75,2.761,2.761,0,0,0-.33-2.91,2.525,2.525,0,0,0-1.93-.65h-4.71v4.77h3.95a8.492,8.492,0,0,0,1.26-.09m-.4-6.21a4.9,4.9,0,0,1,3.18.95,3.254,3.254,0,0,1,1.15,2.63,4.019,4.019,0,0,1-.59,2.18,3.009,3.009,0,0,1-1.89,1.29v.04a2.6,2.6,0,0,1,1.01.38,2.218,2.218,0,0,1,.62.64,3.237,3.237,0,0,1,.35.83,7.393,7.393,0,0,1,.16.96q.045.495.06,1.02a6.778,6.778,0,0,0,.1,1.01,5.731,5.731,0,0,0,.23.95,2.267,2.267,0,0,0,.44.79H421.1a1.079,1.079,0,0,1-.26-.57,4.1,4.1,0,0,1-.09-.81c-.01-.3-.02-.62-.03-.97a7.112,7.112,0,0,0-.13-1.02,8.839,8.839,0,0,0-.2-.95,2.364,2.364,0,0,0-.38-.78,1.9,1.9,0,0,0-.68-.53,2.512,2.512,0,0,0-1.12-.21h-4.62v5.84H411.7V301.52h6.7Z" transform="translate(13371 1482)"/>
    <path id="Path_237" data-name="Path 237" d="M431.8,308.21a2.662,2.662,0,0,0-.61-.89,2.931,2.931,0,0,0-.92-.6,3.1,3.1,0,0,0-1.15-.22,3.056,3.056,0,0,0-1.2.22,2.845,2.845,0,0,0-1.5,1.5,3.287,3.287,0,0,0-.26,1.08h5.93a3.74,3.74,0,0,0-.29-1.09m.41,6.36a4.819,4.819,0,0,1-2.91.84,5.6,5.6,0,0,1-2.14-.38,4.26,4.26,0,0,1-2.45-2.72,7.615,7.615,0,0,1-.35-2.09,5.77,5.77,0,0,1,.36-2.07,5.031,5.031,0,0,1,1.01-1.63,4.494,4.494,0,0,1,1.54-1.07,4.769,4.769,0,0,1,1.94-.39,4.176,4.176,0,0,1,3.73,1.94,5.267,5.267,0,0,1,.76,1.83,7.9,7.9,0,0,1,.17,1.9h-7.72a3.914,3.914,0,0,0,.17,1.24,2.7,2.7,0,0,0,.58,1.03,2.938,2.938,0,0,0,1.02.72,3.541,3.541,0,0,0,1.45.27,3.076,3.076,0,0,0,1.77-.48,2.256,2.256,0,0,0,.9-1.45h1.67a4,4,0,0,1-1.5,2.51" transform="translate(13371 1482)"/>
    <path id="Path_238" data-name="Path 238" d="M436.88,311.69a3.714,3.714,0,0,0,.58,1.18,2.7,2.7,0,0,0,1,.82,3.076,3.076,0,0,0,1.43.31,2.933,2.933,0,0,0,1.45-.33,2.742,2.742,0,0,0,.97-.85,3.278,3.278,0,0,0,.54-1.2,5.239,5.239,0,0,0,.18-1.36,5.506,5.506,0,0,0-.18-1.41,3.37,3.37,0,0,0-.57-1.19,2.947,2.947,0,0,0-1.01-.83,3.247,3.247,0,0,0-1.49-.31,3.089,3.089,0,0,0-1.46.32,2.724,2.724,0,0,0-.95.86,3.49,3.49,0,0,0-.52,1.23,6.644,6.644,0,0,0-.16,1.42,4.717,4.717,0,0,0,.19,1.34m6.09,3.52v-1.34h-.04a2.431,2.431,0,0,1-1.31,1.19,5.285,5.285,0,0,1-1.98.36,4.8,4.8,0,0,1-2.08-.42,4.255,4.255,0,0,1-1.47-1.13,4.861,4.861,0,0,1-.89-1.65,6.522,6.522,0,0,1-.3-1.99,6.79,6.79,0,0,1,.29-1.99,4.63,4.63,0,0,1,.88-1.64,4.206,4.206,0,0,1,1.47-1.11,4.95,4.95,0,0,1,2.06-.41,5.28,5.28,0,0,1,.85.08,4.36,4.36,0,0,1,.92.26,3.908,3.908,0,0,1,.87.48,2.632,2.632,0,0,1,.68.73h.04v-5.09h1.7v13.67h-1.69Z" transform="translate(13371 1482)"/>
    <path id="Path_239" data-name="Path 239" d="M461.37,303.46a4.527,4.527,0,0,0-2.59-.73,4.74,4.74,0,0,0-2.18.46,4.325,4.325,0,0,0-1.5,1.24,5.207,5.207,0,0,0-.86,1.77,7.444,7.444,0,0,0-.28,2.07,8.312,8.312,0,0,0,.28,2.21,5.11,5.11,0,0,0,.86,1.82,4.271,4.271,0,0,0,1.51,1.24,4.886,4.886,0,0,0,2.19.46,4.312,4.312,0,0,0,1.66-.3,3.868,3.868,0,0,0,1.26-.82,3.788,3.788,0,0,0,.83-1.26,5,5,0,0,0,.36-1.57h1.89a5.659,5.659,0,0,1-6.16,5.46,7.165,7.165,0,0,1-2.89-.54,5.62,5.62,0,0,1-2.05-1.51,6.4,6.4,0,0,1-1.22-2.26,9.383,9.383,0,0,1-.41-2.8,8.664,8.664,0,0,1,.45-2.81,6.751,6.751,0,0,1,1.28-2.29,5.974,5.974,0,0,1,2.11-1.54,7.178,7.178,0,0,1,2.9-.56,7.628,7.628,0,0,1,2.11.29,5.678,5.678,0,0,1,1.77.84,4.662,4.662,0,0,1,1.3,1.39,4.781,4.781,0,0,1,.68,1.92h-1.89a3.451,3.451,0,0,0-1.41-2.18" transform="translate(13371 1482)"/>
    <path id="Path_240" data-name="Path 240" d="M468.26,305.3v2.09h.03a4.43,4.43,0,0,1,1.51-1.78,4.007,4.007,0,0,1,2.27-.54v1.73a4.911,4.911,0,0,0-1.73.27,2.7,2.7,0,0,0-1.16.79,3.276,3.276,0,0,0-.63,1.25,6.665,6.665,0,0,0-.2,1.7v4.4h-1.69V305.3Z" transform="translate(13371 1482)"/>
    <path id="Path_241" data-name="Path 241" d="M479.72,308.21a2.662,2.662,0,0,0-.61-.89,2.931,2.931,0,0,0-.92-.6,3.111,3.111,0,0,0-1.16-.22,3.04,3.04,0,0,0-1.19.22,2.7,2.7,0,0,0-.9.61,3.032,3.032,0,0,0-.6.89,3.558,3.558,0,0,0-.26,1.08H480a3.437,3.437,0,0,0-.28-1.09m.41,6.36a4.819,4.819,0,0,1-2.91.84,5.6,5.6,0,0,1-2.14-.38,4.219,4.219,0,0,1-1.52-1.07,4.456,4.456,0,0,1-.93-1.65,7.615,7.615,0,0,1-.35-2.09,5.77,5.77,0,0,1,.36-2.07,5.184,5.184,0,0,1,1-1.63,4.591,4.591,0,0,1,1.54-1.07,4.769,4.769,0,0,1,1.94-.39,4.34,4.34,0,0,1,2.29.55,4.389,4.389,0,0,1,1.45,1.39,5.465,5.465,0,0,1,.76,1.83,6.977,6.977,0,0,1,.16,1.9h-7.71a3.91,3.91,0,0,0,.15,1.24,2.784,2.784,0,0,0,1.59,1.75,3.624,3.624,0,0,0,1.46.27,3,3,0,0,0,1.76-.48,2.307,2.307,0,0,0,.91-1.45h1.67a3.811,3.811,0,0,1-1.48,2.51" transform="translate(13371 1482)"/>
    <path id="Path_242" data-name="Path 242" d="M484.68,312.99a1.871,1.871,0,0,0,.62.6,2.921,2.921,0,0,0,.89.31,4.712,4.712,0,0,0,1,.1,6.261,6.261,0,0,0,.84-.06,3.234,3.234,0,0,0,.8-.21,1.545,1.545,0,0,0,.61-.45,1.167,1.167,0,0,0,.23-.76,1.108,1.108,0,0,0-.5-.96,4.323,4.323,0,0,0-1.24-.53,16.26,16.26,0,0,0-1.62-.36,8.519,8.519,0,0,1-1.62-.46,3.225,3.225,0,0,1-1.24-.83,2.072,2.072,0,0,1-.51-1.49,2.337,2.337,0,0,1,.35-1.28,2.908,2.908,0,0,1,.9-.88,4.12,4.12,0,0,1,1.24-.49,5.8,5.8,0,0,1,1.36-.16,9.05,9.05,0,0,1,1.62.14,3.829,3.829,0,0,1,1.3.5,2.625,2.625,0,0,1,.91.96,3.8,3.8,0,0,1,.4,1.51h-1.7a1.521,1.521,0,0,0-.26-.8,1.619,1.619,0,0,0-.56-.51,2.7,2.7,0,0,0-.75-.28,4.557,4.557,0,0,0-.82-.08,6.78,6.78,0,0,0-.77.05,2.822,2.822,0,0,0-.71.2,1.483,1.483,0,0,0-.52.39.961.961,0,0,0-.2.62.9.9,0,0,0,.31.7,2.32,2.32,0,0,0,.79.46,6.982,6.982,0,0,0,1.08.3c.4.08.79.17,1.19.26a12.741,12.741,0,0,1,1.25.33,4.135,4.135,0,0,1,1.08.51,2.724,2.724,0,0,1,.76.79,2.279,2.279,0,0,1,.28,1.19,2.641,2.641,0,0,1-.39,1.49,2.9,2.9,0,0,1-1.01.96,4.708,4.708,0,0,1-1.42.51,8.407,8.407,0,0,1-1.57.14,7.209,7.209,0,0,1-1.63-.17,4.06,4.06,0,0,1-1.38-.57,2.884,2.884,0,0,1-.95-1.04,3.484,3.484,0,0,1-.4-1.56h1.69a1.81,1.81,0,0,0,.27.91" transform="translate(13371 1482)"/>
    <path id="Path_243" data-name="Path 243" d="M499.34,307.02a2.679,2.679,0,0,0-1.71-.51,3.406,3.406,0,0,0-1.54.32,2.657,2.657,0,0,0-.98.86,3.378,3.378,0,0,0-.53,1.24,6.173,6.173,0,0,0-.16,1.44,4.973,4.973,0,0,0,.17,1.34,3.512,3.512,0,0,0,.53,1.16,2.554,2.554,0,0,0,.94.81,2.869,2.869,0,0,0,1.38.31,2.578,2.578,0,0,0,2.83-2.41H502a4.522,4.522,0,0,1-1.42,2.83,4.6,4.6,0,0,1-3.13,1,5.506,5.506,0,0,1-2.07-.36,4,4,0,0,1-1.52-1.04,4.6,4.6,0,0,1-.92-1.6,6.615,6.615,0,0,1-.3-2.04,7.02,7.02,0,0,1,.3-2.08,4.853,4.853,0,0,1,.9-1.68,4.417,4.417,0,0,1,1.52-1.13,5.221,5.221,0,0,1,2.13-.41,6.638,6.638,0,0,1,1.64.2,3.893,3.893,0,0,1,1.35.62,3.516,3.516,0,0,1,.97,1.06,3.78,3.78,0,0,1,.49,1.53h-1.76a2.518,2.518,0,0,0-.84-1.46" transform="translate(13371 1482)"/>
    <path id="Path_244" data-name="Path 244" d="M510.61,308.21a2.857,2.857,0,0,0-1.54-1.49,3.111,3.111,0,0,0-1.16-.22,3.006,3.006,0,0,0-1.19.22,2.607,2.607,0,0,0-.9.61,3.076,3.076,0,0,0-.86,1.97h5.92a3.175,3.175,0,0,0-.27-1.09m.41,6.36a4.809,4.809,0,0,1-2.9.84,5.531,5.531,0,0,1-2.14-.38,4.192,4.192,0,0,1-2.45-2.72,7.257,7.257,0,0,1-.35-2.09,5.56,5.56,0,0,1,.36-2.07,4.844,4.844,0,0,1,1-1.63,4.362,4.362,0,0,1,1.53-1.07,4.769,4.769,0,0,1,1.94-.39,4.177,4.177,0,0,1,3.74,1.94,5.247,5.247,0,0,1,.75,1.83,7.42,7.42,0,0,1,.17,1.9h-7.71a3.649,3.649,0,0,0,.17,1.24,2.812,2.812,0,0,0,.57,1.03,2.848,2.848,0,0,0,1.02.72,3.574,3.574,0,0,0,1.45.27,3,3,0,0,0,1.76-.48,2.267,2.267,0,0,0,.91-1.45h1.68a4,4,0,0,1-1.5,2.51" transform="translate(13371 1482)"/>
    <path id="Path_245" data-name="Path 245" d="M515.86,305.3v1.57h.04a3.6,3.6,0,0,1,3.35-1.8,4.7,4.7,0,0,1,1.7.27,2.721,2.721,0,0,1,1.09.75,2.6,2.6,0,0,1,.59,1.14,6.056,6.056,0,0,1,.17,1.47v6.51h-1.69V308.5a1.951,1.951,0,0,0-.56-1.46,2.121,2.121,0,0,0-1.54-.53,3.452,3.452,0,0,0-1.34.23,2.555,2.555,0,0,0-.95.65,2.725,2.725,0,0,0-.56.98,3.546,3.546,0,0,0-.19,1.24v5.6h-1.7V305.3h1.59Z" transform="translate(13371 1482)"/>
    <path id="Path_246" data-name="Path 246" d="M529.59,305.3v1.44h-2.05v6.15a1.836,1.836,0,0,0,.05.46.45.45,0,0,0,.19.27.782.782,0,0,0,.39.12,5.481,5.481,0,0,0,.64.03h.77v1.44h-1.29a6.079,6.079,0,0,1-1.13-.09,1.6,1.6,0,0,1-.76-.32,1.4,1.4,0,0,1-.43-.65,3.7,3.7,0,0,1-.14-1.11v-6.3h-1.76V305.3h1.76v-2.97h1.69v2.97Z" transform="translate(13371 1482)"/>
  </g>
</svg>
